# xmcd CD database file
#
# Track frame offsets:
#	150
#	11460
#	23202
#	37265
#	48957
#	60115
#	73992
#	87482
#	102932
#	115322
#
# Disc length: 1694 seconds
#
# Revision: 0
# Processed by: cddbd v1.4PL0 Copyright (c) Steve Scherf et al.
# Submitted via: CDex 1.40Beta9
#
DISCID=81069c0a
DTITLE=Conway Twitty - His Greatest Hits
DYEAR=1994
DGENRE=Country
TTITLE0=Hello Darlin'
TTITLE1=(Lying Here With) Linda On My Mind
TTITLE2=You've Never Been This Far Before
TTITLE3=I'm Not Through Loving You Yet
TTITLE4=It's Only Make Believe
TTITLE5=Fifteen Years Ago
TTITLE6=Play The Games That Daddy's Play
TTITLE7=Touch The Hand
TTITLE8=I've Hurt Her More Than She Loves Me
TTITLE9=She Needs Someone To Hold Her (When She Cries)
EXTD=YEAR: 1994 ID3G: 2
EXTT0=
EXTT1=
EXTT2=
EXTT3=
EXTT4=
EXTT5=
EXTT6=
EXTT7=
EXTT8=
EXTT9=
PLAYORDER=
